<svg width="30" height="30" viewBox="0 0 24 24" fill="none" xmlns="http://www.w3.org/2000/svg">
    <g id="more_horiz">
        <mask id="mask0_83_4914" style="mask-type:alpha" maskUnits="userSpaceOnUse" x="0" y="0"
            width="24" height="24">
            <rect id="Bounding box" width="24" height="24" fill="#D9D9D9" />
        </mask>
        <g mask="url(#mask0_83_4914)">
            <path id="more_horiz_2"
                d="M6.23091 13.5C5.81842 13.5 5.46531 13.3531 5.17156 13.0593C4.87782 12.7656 4.73096 12.4125 4.73096 12C4.73096 11.5875 4.87782 11.2344 5.17156 10.9406C5.46531 10.6469 5.81842 10.5 6.23091 10.5C6.64341 10.5 6.99652 10.6469 7.29026 10.9406C7.58401 11.2344 7.73088 11.5875 7.73088 12C7.73088 12.4125 7.58401 12.7656 7.29026 13.0593C6.99652 13.3531 6.64341 13.5 6.23091 13.5ZM12.0001 13.5C11.5876 13.5 11.2345 13.3531 10.9408 13.0593C10.647 12.7656 10.5002 12.4125 10.5002 12C10.5002 11.5875 10.647 11.2344 10.9408 10.9406C11.2345 10.6469 11.5876 10.5 12.0001 10.5C12.4126 10.5 12.7657 10.6469 13.0595 10.9406C13.3532 11.2344 13.5001 11.5875 13.5001 12C13.5001 12.4125 13.3532 12.7656 13.0595 13.0593C12.7657 13.3531 12.4126 13.5 12.0001 13.5ZM17.7694 13.5C17.3569 13.5 17.0037 13.3531 16.71 13.0593C16.4163 12.7656 16.2694 12.4125 16.2694 12C16.2694 11.5875 16.4163 11.2344 16.71 10.9406C17.0037 10.6469 17.3569 10.5 17.7694 10.5C18.1818 10.5 18.535 10.6469 18.8287 10.9406C19.1224 11.2344 19.2693 11.5875 19.2693 12C19.2693 12.4125 19.1224 12.7656 18.8287 13.0593C18.535 13.3531 18.1818 13.5 17.7694 13.5Z"
            />
        </g>
    </g>
</svg>
  